HIERARCHY
ROOT Hips
{
  OFFSET -0.914103 98.4936 -8.23013
  CHANNELS 6 Xposition Yposition Zposition Zrotation Xrotation Yrotation
  JOINT LeftUpLeg
  {
    OFFSET 8.64259 1.95398 -2.38835
    CHANNELS 6 Xposition Yposition Zposition Zrotation Xrotation Yrotation
    JOINT LeftLeg
    {
      OFFSET 43.7702 0 0
      CHANNELS 6 Xposition Yposition Zposition Zrotation Xrotation Yrotation
      JOINT LeftFoot
      {
        OFFSET 40.6238 0 0
        CHANNELS 6 Xposition Yposition Zposition Zrotation Xrotation Yrotation
        JOINT LeftToeBase
        {
          OFFSET 12.7242 0 0
          CHANNELS 6 Xposition Yposition Zposition Zrotation Xrotation Yrotation
          End Site
          {
            OFFSET 0 0 0
          }
        }
      }
    }
  }
  JOINT RightUpLeg
  {
    OFFSET -8.2249 1.95398 -2.59336
    CHANNELS 6 Xposition Yposition Zposition Zrotation Xrotation Yrotation
    JOINT RightLeg
    {
      OFFSET 43.5653 0 0
      CHANNELS 6 Xposition Yposition Zposition Zrotation Xrotation Yrotation
      JOINT RightFoot
      {
        OFFSET 40.6238 0 0
        CHANNELS 6 Xposition Yposition Zposition Zrotation Xrotation Yrotation
        JOINT RightToeBase
        {
          OFFSET 12.7242 0 0
          CHANNELS 6 Xposition Yposition Zposition Zrotation Xrotation Yrotation
          End Site
          {
            OFFSET 0 0 0
          }
        }
      }
    }
  }
  JOINT Spine
  {
    OFFSET 0.165834 0.87714 6.61349
    CHANNELS 6 Xposition Yposition Zposition Zrotation Xrotation Yrotation
    JOINT Spine1
    {
      OFFSET 7.38963 1.71661e-005 0
      CHANNELS 6 Xposition Yposition Zposition Zrotation Xrotation Yrotation
      JOINT Spine2
      {
        OFFSET 11.9445 1.14441e-005 0
        CHANNELS 6 Xposition Yposition Zposition Zrotation Xrotation Yrotation
        JOINT Spine3
        {
          OFFSET 14.7254 4.19617e-005 0
          CHANNELS 6 Xposition Yposition Zposition Zrotation Xrotation Yrotation
          JOINT Spine4
          {
            OFFSET 10.9679 0 0
            CHANNELS 6 Xposition Yposition Zposition Zrotation Xrotation Yrotation
            JOINT RightShoulder
            {
              OFFSET 2.46616 -1.6653 3.69651
              CHANNELS 6 Xposition Yposition Zposition Zrotation Xrotation Yrotation
              JOINT RightArm
              {
                OFFSET 13.0012 0 0
                CHANNELS 6 Xposition Yposition Zposition Zrotation Xrotation Yrotation
                JOINT RightForeArm
                {
                  OFFSET 28.7848 1.52588e-005 0
                  CHANNELS 6 Xposition Yposition Zposition Zrotation Xrotation Yrotation
                  JOINT RightHand
                  {
                    OFFSET 26.5688 1.52588e-005 0
                    CHANNELS 6 Xposition Yposition Zposition Zrotation Xrotation Yrotation
                    JOINT RightHandMiddle1
                    {
                      OFFSET 8.03675 -0.886581 0.727868
                      CHANNELS 6 Xposition Yposition Zposition Zrotation Xrotation Yrotation
                      JOINT RightHandMiddle2
                      {
                        OFFSET 2.78833 0 0
                        CHANNELS 6 Xposition Yposition Zposition Zrotation Xrotation Yrotation
                        JOINT RightHandMiddle3
                        {
                          OFFSET 2.41155 0 0
                          CHANNELS 6 Xposition Yposition Zposition Zrotation Xrotation Yrotation
                          End Site
                          {
                            OFFSET 0 0 0
                          }
                        }
                      }
                    }
                    JOINT RightHandRing1
                    {
                      OFFSET 7.97966 -0.886765 -1.00486
                      CHANNELS 6 Xposition Yposition Zposition Zrotation Xrotation Yrotation
                      JOINT RightHandRing2
                      {
                        OFFSET 2.86368 0 0
                        CHANNELS 6 Xposition Yposition Zposition Zrotation Xrotation Yrotation
                        JOINT RightHandRing3
                        {
                          OFFSET 2.11079 0 0
                          CHANNELS 6 Xposition Yposition Zposition Zrotation Xrotation Yrotation
                          End Site
                          {
                            OFFSET 0 0 0
                          }
                        }
                      }
                    }
                    JOINT RightHandPinky1
                    {
                      OFFSET 8.03707 -0.887528 -2.60696
                      CHANNELS 6 Xposition Yposition Zposition Zrotation Xrotation Yrotation
                      JOINT RightHandPinky2
                      {
                        OFFSET 1.84628 0 0
                        CHANNELS 6 Xposition Yposition Zposition Zrotation Xrotation Yrotation
                        JOINT RightHandPinky3
                        {
                          OFFSET 1.88434 0 0
                          CHANNELS 6 Xposition Yposition Zposition Zrotation Xrotation Yrotation
                          End Site
                          {
                            OFFSET 0 0 0
                          }
                        }
                      }
                    }
                    JOINT RightHandIndex1
                    {
                      OFFSET 7.92262 -0.885498 2.31175
                      CHANNELS 6 Xposition Yposition Zposition Zrotation Xrotation Yrotation
                      JOINT RightHandIndex2
                      {
                        OFFSET 2.63761 0 0
                        CHANNELS 6 Xposition Yposition Zposition Zrotation Xrotation Yrotation
                        JOINT RightHandIndex3
                        {
                          OFFSET 2.16656 0 0
                          CHANNELS 6 Xposition Yposition Zposition Zrotation Xrotation Yrotation
                          End Site
                          {
                            OFFSET 0 0 0
                          }
                        }
                      }
                    }
                    JOINT RightHandThumb1
                    {
                      OFFSET 3.4769 0.0597992 2.88789
                      CHANNELS 6 Xposition Yposition Zposition Zrotation Xrotation Yrotation
                      JOINT RightHandThumb2
                      {
                        OFFSET 2.77686 9.72748e-005 -1.52588e-005
                        CHANNELS 6 Xposition Yposition Zposition Zrotation Xrotation Yrotation
                        JOINT RightHandThumb3
                        {
                          OFFSET 2.42058 -9.15528e-005 0
                          CHANNELS 6 Xposition Yposition Zposition Zrotation Xrotation Yrotation
                          End Site
                          {
                            OFFSET 0 0 0
                          }
                        }
                      }
                    }
                  }
                }
              }
            }
            JOINT LeftShoulder
            {
              OFFSET 2.38034 -1.29275 -3.7523
              CHANNELS 6 Xposition Yposition Zposition Zrotation Xrotation Yrotation
              JOINT LeftArm
              {
                OFFSET 16.3182 6.10352e-005 0
                CHANNELS 6 Xposition Yposition Zposition Zrotation Xrotation Yrotation
                JOINT LeftForeArm
                {
                  OFFSET 27.0901 0 0
                  CHANNELS 6 Xposition Yposition Zposition Zrotation Xrotation Yrotation
                  JOINT LeftHand
                  {
                    OFFSET 24.5451 1.52588e-005 0
                    CHANNELS 6 Xposition Yposition Zposition Zrotation Xrotation Yrotation
                    JOINT LeftHandMiddle1
                    {
                      OFFSET 9.21802 0.665817 0.545532
                      CHANNELS 6 Xposition Yposition Zposition Zrotation Xrotation Yrotation
                      JOINT LeftHandMiddle2
                      {
                        OFFSET 2.66255 0 0
                        CHANNELS 6 Xposition Yposition Zposition Zrotation Xrotation Yrotation
                        JOINT LeftHandMiddle3
                        {
                          OFFSET 2.2804 0 0
                          CHANNELS 6 Xposition Yposition Zposition Zrotation Xrotation Yrotation
                          End Site
                          {
                            OFFSET 0 0 0
                          }
                        }
                      }
                    }
                    JOINT LeftHandRing1
                    {
                      OFFSET 9.24775 0.665192 -1.1267
                      CHANNELS 6 Xposition Yposition Zposition Zrotation Xrotation Yrotation
                      JOINT LeftHandRing2
                      {
                        OFFSET 2.47041 0 -1.52588e-005
                        CHANNELS 6 Xposition Yposition Zposition Zrotation Xrotation Yrotation
                        JOINT LeftHandRing3
                        {
                          OFFSET 2.2054 0 0
                          CHANNELS 6 Xposition Yposition Zposition Zrotation Xrotation Yrotation
                          End Site
                          {
                            OFFSET 0 0 0
                          }
                        }
                      }
                    }
                    JOINT LeftHandPinky1
                    {
                      OFFSET 9.35384 0.66301 -2.72332
                      CHANNELS 6 Xposition Yposition Zposition Zrotation Xrotation Yrotation
                      JOINT LeftHandPinky2
                      {
                        OFFSET 1.63407 0 0
                        CHANNELS 6 Xposition Yposition Zposition Zrotation Xrotation Yrotation
                        JOINT LeftHandPinky3
                        {
                          OFFSET 1.71176 0 0
                          CHANNELS 6 Xposition Yposition Zposition Zrotation Xrotation Yrotation
                          End Site
                          {
                            OFFSET 0 0 0
                          }
                        }
                      }
                    }
                    JOINT LeftHandIndex1
                    {
                      OFFSET 8.73161 0.675903 2.06801
                      CHANNELS 6 Xposition Yposition Zposition Zrotation Xrotation Yrotation
                      JOINT LeftHandIndex2
                      {
                        OFFSET 2.66689 0 0
                        CHANNELS 6 Xposition Yposition Zposition Zrotation Xrotation Yrotation
                        JOINT LeftHandIndex3
                        {
                          OFFSET 2.12946 0 1.52588e-005
                          CHANNELS 6 Xposition Yposition Zposition Zrotation Xrotation Yrotation
                          End Site
                          {
                            OFFSET 0 0 0
                          }
                        }
                      }
                    }
                    JOINT LeftHandThumb1
                    {
                      OFFSET 4.96735 -0.62265 3.39586
                      CHANNELS 6 Xposition Yposition Zposition Zrotation Xrotation Yrotation
                      JOINT LeftHandThumb2
                      {
                        OFFSET 2.15386 1.52588e-005 0
                        CHANNELS 6 Xposition Yposition Zposition Zrotation Xrotation Yrotation
                        JOINT LeftHandThumb3
                        {
                          OFFSET 2.19511 -3.43323e-005 1.52588e-005
                          CHANNELS 6 Xposition Yposition Zposition Zrotation Xrotation Yrotation
                          End Site
                          {
                            OFFSET 0 0 0
                          }
                        }
                      }
                    }
                  }
                }
              }
            }
            JOINT Neck
            {
              OFFSET 5.0226 -0.0266342 0
              CHANNELS 6 Xposition Yposition Zposition Zrotation Xrotation Yrotation
              JOINT Head
              {
                OFFSET 6.69364 2.86102e-005 0
                CHANNELS 6 Xposition Yposition Zposition Zrotation Xrotation Yrotation
                End Site
                {
                  OFFSET 0 0 0
                }
              }
            }
          }
        }
      }
    }
  }
}
MOTION
Frames:	4
Frame Time:	0.0333333
-0.91409 98.4962 -8.22982 40.7259 -89.9972 40.8311 8.64259 1.95398 -2.38835 -171.458 2.839 90.0704 43.7702 7.03335e-006 0 -9.57781 8.1869 2.68278 40.6238 1.43051e-006 9.53674e-007 63.7141 0.77096 0.37814 12.7242 2.38419e-006 9.53674e-007 28.7808 6.1472e-006 7.56055e-007 -8.2249 1.95398 -2.59336 -179.085 1.99321 91.9374 43.5653 7.27177e-006 0 -7.74571 1.1194 0.0640192 40.6238 2.38419e-006 9.53674e-007 62.8166 -1.08126 -0.540969 12.7242 -4.76837e-007 8.88178e-016 28.7808 1.53536e-005 3.18881e-005 0.165834 0.87714 6.61349 0.00837628 6.33209 -90.1054 7.38963 1.71661e-005 -9.72809e-008 14.1935 -0.0138614 -1.69388e-006 11.9445 1.14441e-005 6.65395e-008 2.52251 -0.0127988 -3.01018e-006 14.7254 4.19617e-005 8.195e-008 -20.0126 3.1897e-006 8.89021e-006 10.9679 -9.53674e-006 5.82672e-008 -0 0 3.10601e-018 2.46616 -1.6653 3.69651 100.789 -18.8295 -85.5675 13.0012 0 0 -0.108962 35.7504 -24.5832 28.7848 1.52588e-005 -1.19209e-007 2.16466 0.120489 -8.3008 26.5688 1.52588e-005 4.76837e-007 -5.37983 -0.320008 -0.0162412 8.03675 -0.886581 0.727868 -89.4043 88.9709 89.0941 2.78833 2.38419e-007 1.42109e-014 -0.0604884 -1.56906e-006 1.56765e-007 2.41155 -1.42109e-014 0 -0.0639211 1.75686e-008 -1.06816e-006 7.97966 -0.886765 -1.00486 -89.3948 88.981 89.0846 2.86368 4.26326e-014 0 -1.15742 -8.61772e-006 -5.5103e-007 2.11079 -1.42109e-014 0 2.576 -4.16011e-007 1.48762e-006 8.03707 -0.887528 -2.60696 -88.8565 89.3579 88.5464 1.84628 0 1.42109e-014 -1.14578 -3.40825e-006 -1.02225e-006 1.88434 0 0 1.14577 -4.91692e-006 3.49285e-007 7.92262 -0.885498 2.31175 -89.423 88.9487 89.1127 2.63761 4.76837e-007 -1.42109e-014 0.409286 -5.27444e-006 0.000605695 2.16656 -2.38419e-007 0 -0.636601 5.45828e-007 -1.18292e-006 3.4769 0.0597992 2.88789 104.364 40.5023 -88.8246 2.77686 9.72748e-005 -1.52588e-005 -7.66903 0.18617 -1.35044 2.42058 -9.15528e-005 -2.84217e-014 -11.2634 4.53828e-006 6.53374e-005 2.38034 -1.29275 -3.7523 -79.2571 -22.0122 93.7323 16.3182 6.10352e-005 1.19209e-007 13.5267 -37.6427 -16.9076 27.0901 1.42109e-014 1.42109e-014 2.23979 38.2888 -7.27193 24.5451 1.52588e-005 0 -0.756482 -0.0175217 0.990554 9.21802 0.665817 0.545532 -91.1873 -87.8289 -89.9988 2.66255 0 0 3.40888 -4.79394e-006 0.00347319 2.2804 -1.77636e-015 0 -0.954861 1.43184e-006 8.06711e-007 9.24775 0.665192 -1.1267 -91.1871 -89.4015 -89.9985 2.47041 -4.76837e-007 -1.52588e-005 2.85636 -2.84795e-006 0.00277732 2.2054 1.77636e-015 0 -3.16844 1.30886e-006 6.46063e-007 9.35384 0.66301 -2.72332 88.8084 -89.717 89.9969 1.63407 -4.76837e-007 -2.84217e-014 2.54481 6.67865e-006 0.00228753 1.71176 3.55271e-015 -2.84217e-014 -2.54482 -5.63697e-006 -1.68548e-007 8.73161 0.675903 2.06801 -91.1882 -86.1973 -89.9997 2.66689 -9.53674e-007 0 6.13104 -4.65782e-006 0.00671391 2.12946 1.04308e-007 1.52588e-005 -2.04542 -6.34178e-006 -6.57417e-007 4.96735 -0.62265 3.39586 -101.949 -40.7242 -90.0694 2.15386 1.52588e-005 0 10.0172 1.94666e-006 2.10793e-007 2.19511 -3.43323e-005 1.52588e-005 -2.66976 -4.72041e-006 -3.4341e-006 5.0226 -0.0266342 -9.09384e-013 1.7611 -0.00031793 -0.00466531 6.69364 2.86102e-005 -1.09447e-007 -7.40925 0.00110396 0.00874792 
-0.914857 98.5313 -8.22416 -25.3077 -89.9601 -25.1652 8.64259 1.95398 -2.38835 -171.459 2.79897 90.1074 43.7702 7.03335e-006 0 -9.41491 8.14266 2.66698 40.6238 1.43051e-006 9.53674e-007 63.5902 0.742385 0.362093 12.7242 2.38419e-006 9.53674e-007 28.7808 6.1472e-006 7.56055e-007 -8.2249 1.95398 -2.59336 -179.01 1.13564 91.9503 43.5653 7.27177e-006 8.88178e-016 -5.90918 1.16239 0.0640202 40.6238 2.38419e-006 9.53674e-007 61.9806 -0.914682 -0.427546 12.7242 -4.76837e-007 8.88178e-016 28.7808 1.53536e-005 3.18881e-005 0.165834 0.87714 6.61349 0.011086 6.33146 -90.1382 7.38963 1.71661e-005 -9.72809e-008 14.1934 -0.0138614 -3.8844e-005 11.9445 1.14441e-005 6.65395e-008 2.52247 -0.0127988 -4.16019e-005 14.7254 4.19617e-005 8.195e-008 -20.0127 4.36646e-005 -1.73458e-005 10.9679 -9.53674e-006 5.82672e-008 -3.22333e-005 4.0491e-005 -2.62571e-005 2.46616 -1.6653 3.69651 100.799 -18.8755 -85.5846 13.0012 0 1.77636e-015 -0.147335 35.7867 -24.5414 28.7848 1.52588e-005 -1.19209e-007 2.14845 0.120499 -8.26806 26.5688 1.52588e-005 4.76837e-007 -5.37983 -0.320008 -0.0162412 8.03675 -0.886581 0.727868 -89.4043 88.9709 89.0941 2.78833 2.38419e-007 0 -0.0604884 -1.56906e-006 1.56765e-007 2.41155 0 0 -0.0639211 1.75686e-008 -1.06816e-006 7.97966 -0.886765 -1.00486 -89.3948 88.981 89.0846 2.86368 -1.42109e-014 0 -1.15742 -8.61772e-006 -5.5103e-007 2.11079 0 0 2.576 -4.16011e-007 1.48762e-006 8.03707 -0.887528 -2.60696 -88.8565 89.3579 88.5464 1.84628 0 2.84217e-014 -1.14578 -3.40825e-006 -1.02225e-006 1.88434 0 1.42109e-014 1.14577 -4.91692e-006 3.49285e-007 7.92262 -0.885498 2.31175 -89.423 88.9487 89.1127 2.63761 4.76837e-007 -1.42109e-014 0.409286 -5.27444e-006 0.000605695 2.16656 -2.38419e-007 0 -0.636601 5.45828e-007 -1.18292e-006 3.4769 0.0597992 2.88789 104.364 40.5023 -88.8246 2.77686 9.72748e-005 -1.52588e-005 -7.66903 0.18617 -1.35044 2.42058 -9.15528e-005 -2.84217e-014 -11.2634 4.53828e-006 6.53374e-005 2.38034 -1.29275 -3.7523 -79.2135 -21.9403 93.7762 16.3182 6.10352e-005 1.19209e-007 13.4942 -37.6131 -16.9288 27.0901 1.42109e-014 0 2.21675 38.2278 -7.2798 24.5451 1.52588e-005 -3.55271e-015 -0.756474 -0.0175215 1.03566 9.21802 0.665817 0.545532 -91.1873 -87.8289 -89.9988 2.66255 -3.55271e-015 0 3.40888 -4.79394e-006 0.00347319 2.2804 -1.77636e-015 0 -0.954861 1.43184e-006 8.06711e-007 9.24775 0.665192 -1.1267 -91.1871 -89.4015 -89.9985 2.47041 -4.76837e-007 -1.52588e-005 2.85636 -2.84795e-006 0.00277732 2.2054 1.77636e-015 -2.84217e-014 -3.16844 1.30886e-006 6.46063e-007 9.35384 0.66301 -2.72332 88.8084 -89.717 89.9969 1.63407 -4.76837e-007 5.68434e-014 2.54481 6.67865e-006 0.00228753 1.71176 -1.77636e-015 0 -2.54482 -5.63697e-006 -1.68548e-007 8.73161 0.675903 2.06801 -91.1882 -86.1973 -89.9997 2.66689 -9.53674e-007 0 6.13104 -4.65782e-006 0.00671391 2.12946 1.04308e-007 1.52588e-005 -2.04542 -6.34178e-006 -6.57417e-007 4.96735 -0.62265 3.39586 -101.949 -40.7242 -90.0694 2.15386 1.52588e-005 0 10.0172 1.94666e-006 2.10793e-007 2.19511 -3.43323e-005 1.52588e-005 -2.66976 -4.72041e-006 -3.4341e-006 5.0226 -0.0266342 -9.09495e-013 1.87815 -0.00645938 -0.0697199 6.69364 2.86102e-005 -1.09447e-007 -7.38544 0.0182844 0.137257 
-0.929771 98.4944 -8.21107 1.76941 -89.9371 1.8867 8.64259 1.95398 -2.38835 -171.468 2.84632 90.0804 43.7702 7.03335e-006 0 -9.48844 8.18218 2.67976 40.6238 1.43051e-006 9.53674e-007 63.7034 0.839569 0.418633 12.7242 2.38419e-006 9.53674e-007 28.7808 6.1472e-006 7.56055e-007 -8.2249 1.95398 -2.59336 -179.075 1.97714 91.9449 43.5653 7.27177e-006 0 -7.59772 1.11955 0.0640193 40.6238 2.38419e-006 9.53674e-007 62.7427 -1.06779 -0.530831 12.7242 -4.76837e-007 8.88178e-016 28.7808 1.53536e-005 3.18881e-005 0.165834 0.87714 6.61349 0.00929732 6.33182 -90.1205 7.38963 1.71661e-005 -9.72809e-008 14.1941 -0.0138614 0.000754289 11.9445 1.14441e-005 6.65395e-008 2.52317 -0.0127988 0.000777794 14.7254 4.19617e-005 8.195e-008 -20.012 -0.000826259 0.000539075 10.9679 -9.53674e-006 5.82672e-008 0.000659865 -0.000828097 0.000530491 2.46616 -1.6653 3.69651 100.835 -18.8458 -85.5419 13.0012 2.84217e-014 0 -0.12583 35.7812 -24.5173 28.7848 1.52588e-005 -1.19209e-007 2.13945 0.1205 -8.26411 26.5688 1.52588e-005 4.76837e-007 -5.37983 -0.320008 -0.0162412 8.03675 -0.886581 0.727868 -89.4043 88.9709 89.0941 2.78833 2.38419e-007 0 -0.0604884 -1.56906e-006 1.56765e-007 2.41155 0 1.42109e-014 -0.0639211 1.75686e-008 -1.06816e-006 7.97966 -0.886765 -1.00486 -89.3948 88.981 89.0846 2.86368 0 0 -1.15742 -8.61772e-006 -5.5103e-007 2.11079 0 1.42109e-014 2.576 -4.16011e-007 1.48762e-006 8.03707 -0.887528 -2.60696 -88.8565 89.3579 88.5464 1.84628 0 0 -1.14578 -3.40825e-006 -1.02225e-006 1.88434 -1.42109e-014 0 1.14577 -4.91692e-006 3.49285e-007 7.92262 -0.885498 2.31175 -89.423 88.9487 89.1127 2.63761 4.76837e-007 1.42109e-014 0.409286 -5.27444e-006 0.000605695 2.16656 -2.38419e-007 1.42109e-014 -0.636601 5.45828e-007 -1.18292e-006 3.4769 0.0597992 2.88789 104.364 40.5023 -88.8246 2.77686 9.72748e-005 -1.52588e-005 -7.66903 0.18617 -1.35044 2.42058 -9.15528e-005 0 -11.2634 4.53828e-006 6.53374e-005 2.38034 -1.29275 -3.7523 -79.2233 -21.9298 93.7008 16.3182 6.10352e-005 1.19209e-007 13.5674 -37.6472 -16.8963 27.0901 1.42109e-014 1.42109e-014 2.25483 38.3507 -7.27737 24.5451 1.52588e-005 0 -0.901829 -0.0175215 1.02747 9.21802 0.665817 0.545532 -91.1873 -87.8289 -89.9988 2.66255 0 -2.84217e-014 3.40888 -4.79394e-006 0.00347319 2.2804 -3.55271e-015 -2.84217e-014 -0.954861 1.43184e-006 8.06711e-007 9.24775 0.665192 -1.1267 -91.1871 -89.4015 -89.9985 2.47041 -4.76837e-007 -1.52588e-005 2.85636 -2.84795e-006 0.00277732 2.2054 0 -2.84217e-014 -3.16844 1.30886e-006 6.46063e-007 9.35384 0.66301 -2.72332 88.8084 -89.717 89.9969 1.63407 -4.76837e-007 0 2.54481 6.67865e-006 0.00228753 1.71176 0 0 -2.54482 -5.63697e-006 -1.68548e-007 8.73161 0.675903 2.06801 -91.1882 -86.1973 -89.9997 2.66689 -9.53674e-007 0 6.13104 -4.65782e-006 0.00671391 2.12946 1.04308e-007 1.52588e-005 -2.04542 -6.34178e-006 -6.57417e-007 4.96735 -0.62265 3.39586 -101.949 -40.7242 -90.0694 2.15386 1.52588e-005 0 10.0172 1.94666e-006 2.10793e-007 2.19511 -3.43323e-005 1.52588e-005 -2.66976 -4.72041e-006 -3.4341e-006 5.0226 -0.0266342 -9.09606e-013 1.97484 -0.0226853 -0.00503686 6.69364 2.86102e-005 -1.09447e-007 -7.40445 0.0293116 0.104516 
-0.939263 98.5268 -8.21117 -4.06003 -89.9079 -3.91213 8.64259 1.95398 -2.38835 -171.47 2.83146 90.114 43.7702 7.03335e-006 0 -9.37755 8.15718 2.68048 40.6238 1.43051e-006 9.53674e-007 63.5916 0.792015 0.391349 12.7242 2.38419e-006 9.53674e-007 28.7808 6.1472e-006 7.56055e-007 -8.2249 1.95398 -2.59336 -179.002 1.18774 91.9684 43.5653 7.27177e-006 0 -5.90984 1.16819 0.0640203 40.6238 2.38419e-006 9.53674e-007 61.969 -0.975162 -0.462352 12.7242 -4.76837e-007 8.88178e-016 28.7808 1.53536e-005 3.18881e-005 0.165834 0.87714 6.61349 0.000983683 6.33167 -90.1375 7.38963 1.71661e-005 -9.72809e-008 14.2113 -0.0138614 0.0207691 11.9445 1.14441e-005 6.65395e-008 2.54033 -0.0127988 0.0214914 14.7254 4.19617e-005 8.195e-008 -19.9948 -0.0224747 0.014695 10.9679 -9.53674e-006 5.82672e-008 0.0178219 -0.0224603 0.0146964 2.46616 -1.6653 3.69651 100.766 -18.9125 -85.6212 13.0012 0 -1.77636e-015 -0.179502 35.7338 -24.4345 28.7848 1.52588e-005 -1.19209e-007 2.18794 0.120485 -8.31364 26.5688 1.52588e-005 4.76837e-007 -5.37983 -0.320008 -0.0162412 8.03675 -0.886581 0.727868 -89.4043 88.9709 89.0941 2.78833 2.38419e-007 0 -0.0604884 -1.56906e-006 1.56765e-007 2.41155 0 0 -0.0639211 1.75686e-008 -1.06816e-006 7.97966 -0.886765 -1.00486 -89.3948 88.981 89.0846 2.86368 0 -1.42109e-014 -1.15742 -8.61772e-006 -5.5103e-007 2.11079 0 0 2.576 -4.16011e-007 1.48762e-006 8.03707 -0.887528 -2.60696 -88.8565 89.3579 88.5464 1.84628 -1.42109e-014 0 -1.14578 -3.40825e-006 -1.02225e-006 1.88434 0 -1.42109e-014 1.14577 -4.91692e-006 3.49285e-007 7.92262 -0.885498 2.31175 -89.423 88.9487 89.1127 2.63761 4.76837e-007 0 0.409286 -5.27444e-006 0.000605695 2.16656 -2.38419e-007 1.42109e-014 -0.636601 5.45828e-007 -1.18292e-006 3.4769 0.0597992 2.88789 104.364 40.5023 -88.8246 2.77686 9.72748e-005 -1.52588e-005 -7.66903 0.18617 -1.35044 2.42058 -9.15528e-005 0 -11.2634 4.53828e-006 6.53374e-005 2.38034 -1.29275 -3.7523 -79.2416 -21.7539 93.7466 16.3182 6.10352e-005 1.19209e-007 13.55 -37.6514 -16.8611 27.0901 0 0 2.26437 38.3516 -7.27477 24.5451 1.52588e-005 -3.55271e-015 -0.825736 -0.0175215 1.02483 9.21802 0.665817 0.545532 -91.1873 -87.8289 -89.9988 2.66255 0 0 3.40888 -4.79394e-006 0.00347319 2.2804 3.55271e-015 0 -0.954861 1.43184e-006 8.06711e-007 9.24775 0.665192 -1.1267 -91.1871 -89.4015 -89.9985 2.47041 -4.76837e-007 -1.52588e-005 2.85636 -2.84795e-006 0.00277732 2.2054 1.77636e-015 2.84217e-014 -3.16844 1.30886e-006 6.46063e-007 9.35384 0.66301 -2.72332 88.8084 -89.717 89.9969 1.63407 -4.76837e-007 0 2.54481 6.67865e-006 0.00228753 1.71176 -3.55271e-015 0 -2.54482 -5.63697e-006 -1.68548e-007 8.73161 0.675903 2.06801 -91.1882 -86.1973 -89.9997 2.66689 -9.53674e-007 0 6.13104 -4.65782e-006 0.00671391 2.12946 1.04308e-007 1.52588e-005 -2.04542 -6.34178e-006 -6.57417e-007 4.96735 -0.62265 3.39586 -101.949 -40.7242 -90.0694 2.15386 1.52588e-005 -2.84217e-014 10.0172 1.94666e-006 2.10793e-007 2.19511 -3.43323e-005 1.52588e-005 -2.66976 -4.72041e-006 -3.4341e-006 5.0226 -0.0266342 -9.09273e-013 1.98724 0.0134531 -0.13644 6.69364 2.86102e-005 -1.09447e-007 -7.43478 0.0282124 0.215152 
